<?xml version="1.0" standalone="no"?>
<!DOCTYPE svg PUBLIC "-//W3C//DTD SVG 20010904//EN"
 "http://www.w3.org/TR/2001/REC-SVG-20010904/DTD/svg10.dtd">
<svg version="1.0" xmlns="http://www.w3.org/2000/svg"
 width="1000.000000pt" height="1000.000000pt" viewBox="0 0 1000.000000 1000.000000"
 preserveAspectRatio="xMidYMid meet">

<g transform="translate(0.000000,1000.000000) scale(0.100000,-0.100000)"
fill="#000000" stroke="none">
<path d="M4343 7993 c-10 -4 -13 -84 -13 -355 0 -322 -1 -352 -17 -364 -10 -7
-28 -14 -39 -14 -45 0 -274 -83 -384 -139 -155 -77 -275 -164 -395 -285 -166
-167 -247 -313 -304 -549 -14 -61 -15 -391 0 -418 6 -11 11 -35 11 -52 1 -18
4 -34 7 -37 4 -3 15 -32 25 -65 46 -150 131 -282 275 -426 197 -196 439 -336
784 -455 142 -49 172 -57 375 -109 294 -76 427 -122 599 -209 236 -119 381
-269 449 -466 29 -85 25 -234 -9 -322 -88 -228 -286 -368 -586 -414 -146 -22
-457 -19 -601 6 -312 53 -523 198 -620 424 -24 57 -60 194 -60 230 l0 26 -365
0 -365 0 5 -42 c12 -91 27 -176 41 -235 111 -469 517 -832 1099 -981 l70 -18
5 -359 c3 -198 7 -361 8 -362 1 -2 223 -3 492 -3 l490 0 0 354 c0 290 2 356
14 365 8 6 38 16 67 21 66 10 276 74 338 101 360 159 594 386 692 670 27 80
35 117 54 249 18 125 18 176 4 289 -55 443 -229 702 -634 943 -257 153 -480
241 -939 368 -472 132 -767 287 -897 472 -63 91 -81 146 -81 258 1 137 34 229
126 344 32 40 152 129 221 164 65 33 189 71 288 89 111 20 390 22 487 4 176
-33 312 -95 409 -187 112 -105 170 -229 194 -408 l12 -91 364 -3 363 -2 -7 77
c-14 162 -75 381 -137 492 -58 104 -76 132 -125 198 -151 204 -377 359 -653
448 -47 15 -101 33 -120 40 l-35 13 -3 366 -2 366 -483 -1 c-265 0 -488 -3
-494 -6z"/>
</g>
</svg>
